<svg height="479pt" viewBox="-71 0 479 479.95694" width="479pt" xmlns="http://www.w3.org/2000/svg"><path d="m168.476562 79.957031-96 48v32h192v-28zm0 0" fill="#e2c8ac"/><path d="m112.476562 151.957031-40-24v48zm0 0" fill="#ceb195"/><path d="m207.679688 100.757812-16.800782-8.800781-93.601562 50.398438 15.199218 9.601562h.800782zm0 0" fill="#c1a38a"/><path d="m270.078125 35.15625c-2.398437-8.800781-11.199219-13.597656-20-11.199219l-216 58.398438c-8.800781 2.402343-13.601563 11.203125-11.199219 20l2.398438 8 247.199218-67.199219zm0 0" fill="#668796"/><path d="m96.476562 66.355469-6.398437-23.199219c-3.199219-12.800781 4-25.597656 16.800781-29.597656l46.398438-12.800782c12.800781-3.199218 25.601562 4 29.601562 16.800782l6.398438 23.199218-15.199219 4-6.398437-23.199218c-.800782-4-5.601563-6.402344-9.601563-5.601563l-46.398437 12.800781c-4 .800782-6.402344 5.597657-5.601563 9.597657l6.398437 23.203125zm0 0" fill="#83a0aa"/><path d="m40.476562 151.957031v304c0 8.800781 7.203126 16 16 16h224c8.800782 0 16-7.199219 16-16v-304zm0 0" fill="#83a0aa"/><g fill="#668796"><path d="m336.476562 175.957031h-16v-16h-304v16h-16v-32h336zm0 0"/><path d="m96.476562 183.957031h16v256h-16zm0 0"/><path d="m160.476562 183.957031h16v256h-16zm0 0"/><path d="m224.476562 183.957031h16v256h-16zm0 0"/></g><path d="m208.476562 63.957031h16v16h-16zm0 0" fill="#f7d289"/><path d="m240.476562 71.957031h16v24h-16zm0 0" fill="#f7d289"/><path d="m272.476562 87.957031h16v24h-16zm0 0" fill="#f7d289"/><path d="m18.078125 111.957031 15.199219-4-2.398438-8c-.800781-4 1.597656-8.800781 5.597656-9.601562l216-58.398438c4-.800781 8.800782 1.601563 9.601563 5.601563l2.398437 8 16-4.800782-2.398437-8c-3.199219-12-16.800781-20-29.601563-16.800781l-61.597656 16.800781-4-15.199218c-3.199218-12.800782-16.800781-20-29.601562-16.800782l-46.398438 12.800782c-12.800781 3.199218-20 16.796875-16.800781 29.597656l4 15.199219-61.601563 16.800781c-12.796874 3.199219-20 16.800781-16.796874 29.601562zm87.199219-73.601562c-.800782-4 1.601562-8.796875 5.601562-9.597657l46.398438-12.800781c4-.800781 8.800781 1.601563 9.601562 5.601563l4 15.199218-61.601562 16.800782zm0 0"/><path d="m272.476562 143.957031v-16.800781l-104-56-104 52v20.800781h-64v32h16v-16h16v296c0 13.601563 10.402344 24 24 24h224c13.601563 0 24-10.398437 24-24v-296h16v16h16v-32zm-16 0h-128l71.203126-38.398437 56.796874 30.398437zm-74.398437-47.199219-77.601563 41.597657-16-9.597657 79.203126-40zm-101.601563 45.597657 3.203126 1.601562h-3.203126zm208 313.601562c0 4.800781-3.199218 8-8 8h-224c-4.796874 0-8-3.199219-8-8v-296h240zm0 0"/><path d="m96.476562 183.957031h16v256h-16zm0 0"/><path d="m160.476562 183.957031h16v256h-16zm0 0"/><path d="m224.476562 183.957031h16v256h-16zm0 0"/><path d="m208.476562 63.957031h16v16h-16zm0 0"/><path d="m240.476562 71.957031h16v24h-16zm0 0"/><path d="m272.476562 87.957031h16v24h-16zm0 0"/></svg>