<svg xmlns="http://www.w3.org/2000/svg" height="512pt" version="1.1" viewBox="-53 0 512 512.00091" width="512pt">
<g id="surface1">
<path d="M 264.828125 35.3125 L 247.171875 0 L 203.035156 0 L 203.035156 35.3125 Z M 264.828125 35.3125 " style=" stroke:none;fill-rule:nonzero;fill:rgb(14.117647%,53.333333%,100%);fill-opacity:1;" />
<path d="M 203.035156 0 L 158.898438 0 L 141.242188 35.3125 L 203.035156 35.3125 Z M 203.035156 0 " style=" stroke:none;fill-rule:nonzero;fill:rgb(0%,42.745098%,94.117647%);fill-opacity:1;" />
<path d="M 264.828125 35.3125 L 203.035156 35.3125 L 203.035156 88.277344 L 406.070312 88.277344 L 406.070312 35.3125 Z M 264.828125 35.3125 " style=" stroke:none;fill-rule:nonzero;fill:rgb(34.117647%,64.313725%,100%);fill-opacity:1;" />
<path d="M 203.035156 35.3125 L 0 35.3125 L 0 88.277344 L 203.035156 88.277344 Z M 203.035156 35.3125 " style=" stroke:none;fill-rule:nonzero;fill:rgb(14.117647%,53.333333%,100%);fill-opacity:1;" />
<path d="M 203.035156 158.898438 L 203.035156 88.277344 L 26.484375 88.277344 L 79.449219 512 L 203.035156 512 Z M 106.476562 158.898438 L 141.789062 441.378906 Z M 106.476562 158.898438 " style=" stroke:none;fill-rule:nonzero;fill:rgb(60.784314%,78.823529%,100%);fill-opacity:1;" />
<path d="M 203.035156 158.898438 L 203.035156 512 L 326.621094 512 L 379.585938 88.277344 L 203.035156 88.277344 Z M 264.273438 441.378906 L 299.582031 158.898438 Z M 264.273438 441.378906 " style=" stroke:none;fill-rule:nonzero;fill:rgb(74.117647%,85.882353%,100%);fill-opacity:1;" />
<path d="M 141.789062 450.207031 C 137.339844 450.207031 133.582031 446.890625 133.03125 442.472656 L 97.722656 159.992188 C 97.117188 155.152344 100.550781 150.738281 105.386719 150.136719 C 110.226562 149.53125 114.640625 152.964844 115.242188 157.804688 L 150.554688 440.285156 C 151.15625 445.121094 147.726562 449.53125 142.890625 450.136719 C 142.527344 450.179688 142.15625 450.207031 141.789062 450.207031 Z M 141.789062 450.207031 " style=" stroke:none;fill-rule:nonzero;fill:rgb(0%,27.843137%,60.784314%);fill-opacity:1;" />
<path d="M 264.28125 450.207031 C 263.910156 450.207031 263.542969 450.179688 263.175781 450.136719 C 258.339844 449.53125 254.910156 445.121094 255.515625 440.285156 L 290.824219 157.804688 C 291.429688 152.964844 295.84375 149.53125 300.679688 150.136719 C 305.519531 150.742188 308.953125 155.152344 308.347656 159.992188 L 273.039062 442.472656 C 272.484375 446.890625 268.730469 450.207031 264.28125 450.207031 Z M 264.28125 450.207031 " style=" stroke:none;fill-rule:nonzero;fill:rgb(0%,27.843137%,60.784314%);fill-opacity:1;" />
<path d="M 203.035156 450.207031 C 198.160156 450.207031 194.207031 446.253906 194.207031 441.378906 L 194.207031 158.898438 C 194.207031 154.023438 198.160156 150.070312 203.035156 150.070312 C 207.910156 150.070312 211.863281 154.019531 211.863281 158.898438 L 211.863281 441.378906 C 211.863281 446.253906 207.910156 450.207031 203.035156 450.207031 Z M 203.035156 450.207031 " style=" stroke:none;fill-rule:nonzero;fill:rgb(0%,27.843137%,60.784314%);fill-opacity:1;" />
</g>
</svg>