<?xml version="1.0" encoding="iso-8859-1"?>
<!-- Generator: Adobe Illustrator 19.0.0, SVG Export Plug-In . SVG Version: 6.00 Build 0)  -->
<svg version="1.1" id="Layer_1" xmlns="http://www.w3.org/2000/svg" xmlns:xlink="http://www.w3.org/1999/xlink" x="0px" y="0px"
	 viewBox="0 0 512.001 512.001" style="enable-background:new 0 0 512.001 512.001;" xml:space="preserve">
<path style="fill:#F5BA3D;" d="M472.146,59.829c-2.316-1.861-5.471-2.302-8.208-1.145c-23.213,9.802-62.532,23.027-118.025,30.371
	c-2.777,0.368-5.167,2.147-6.314,4.702c-1.148,2.555-0.892,5.524,0.677,7.844l89.918,132.96c1.523,2.252,4.05,3.557,6.698,3.557
	c0.55,0,1.104-0.056,1.657-0.173c3.213-0.673,5.701-3.221,6.297-6.45l30.19-163.899C475.573,64.675,474.464,61.691,472.146,59.829z"
	/>
<path style="fill:#EF9325;" d="M472.146,59.829c-2.316-1.861-5.471-2.302-8.208-1.145c-7.943,3.354-17.774,7.108-29.492,10.892
	l-24.956,134.375l20.702,30.613c1.523,2.252,4.05,3.557,6.698,3.557c0.55,0,1.104-0.056,1.657-0.173
	c3.213-0.673,5.701-3.221,6.297-6.45l30.19-163.899C475.573,64.675,474.464,61.691,472.146,59.829z"/>
<path style="fill:#F7434C;" d="M324.184,95.461c-1.668-2.268-4.393-3.516-7.204-3.268c-19.674,1.681-40.19,2.534-60.981,2.534
	c-20.79,0-41.306-0.853-60.98-2.534c-2.815-0.246-5.536,0.998-7.204,3.268c-1.668,2.27-2.035,5.244-0.968,7.851l61.669,150.714
	c1.243,3.038,4.201,5.024,7.484,5.024s6.241-1.985,7.485-5.024l61.67-150.714C326.22,100.706,325.853,97.731,324.184,95.461z"/>
<path style="fill:#DB2E37;" d="M263.484,254.027l61.669-150.715c1.066-2.607,0.7-5.582-0.968-7.851
	c-1.668-2.268-4.393-3.516-7.204-3.268c-9.41,0.804-19.018,1.413-28.752,1.835l-52.625,128.441l12.912,31.557
	c1.243,3.038,4.201,5.024,7.484,5.024S262.24,257.065,263.484,254.027z"/>
<path style="fill:#F5BA3D;" d="M172.403,93.758c-1.148-2.556-3.538-4.335-6.315-4.702c-55.493-7.345-94.812-20.57-118.024-30.371
	c-2.74-1.158-5.891-0.717-8.209,1.145c-2.318,1.862-3.428,4.845-2.888,7.769l30.189,163.899c0.595,3.229,3.083,5.778,6.297,6.45
	c0.552,0.115,1.107,0.173,1.657,0.173c2.648,0,5.174-1.305,6.697-3.557l89.92-132.96C173.295,99.281,173.551,96.313,172.403,93.758z
	"/>
<path style="fill:#EF9325;" d="M81.805,234.562l89.92-132.96c1.57-2.321,1.825-5.288,0.677-7.844
	c-1.148-2.556-3.538-4.335-6.315-4.702c-8.95-1.185-17.473-2.524-25.582-3.975L61.834,202.614l5.32,28.883
	c0.595,3.229,3.083,5.778,6.297,6.45c0.552,0.115,1.107,0.173,1.657,0.173C77.757,238.119,80.283,236.815,81.805,234.562z"/>
<path style="fill:#F7434C;" d="M472.146,273.938c-2.316-1.861-5.471-2.302-8.208-1.145c-23.213,9.802-62.532,23.027-118.025,30.371
	c-2.777,0.368-5.167,2.147-6.314,4.702c-1.148,2.555-0.892,5.524,0.677,7.844l89.918,132.96c1.523,2.252,4.05,3.557,6.698,3.557
	c0.55,0,1.104-0.056,1.657-0.173c3.213-0.673,5.701-3.221,6.297-6.45l30.19-163.899
	C475.573,278.783,474.464,275.799,472.146,273.938z"/>
<path style="fill:#DB2E37;" d="M472.146,273.938c-2.316-1.861-5.471-2.302-8.208-1.145c-7.993,3.375-17.897,7.156-29.711,10.963
	l-24.683,134.382l20.649,30.534c1.523,2.252,4.05,3.557,6.698,3.557c0.55,0,1.104-0.056,1.657-0.173
	c3.213-0.673,5.701-3.221,6.297-6.45l30.19-163.899C475.573,278.783,474.464,275.799,472.146,273.938z"/>
<path style="fill:#F5BA3D;" d="M324.184,309.569c-1.668-2.27-4.393-3.515-7.204-3.268c-19.674,1.681-40.19,2.534-60.981,2.534
	c-20.79,0-41.306-0.853-60.98-2.534c-2.815-0.244-5.536,0.998-7.204,3.268c-1.668,2.27-2.035,5.244-0.968,7.851l61.669,150.714
	c1.243,3.038,4.201,5.024,7.484,5.024s6.241-1.985,7.485-5.024l61.669-150.714C326.22,314.814,325.853,311.839,324.184,309.569z"/>
<path style="fill:#EF9325;" d="M325.153,317.421c1.066-2.607,0.7-5.582-0.968-7.851s-4.393-3.515-7.204-3.268
	c-9.539,0.815-19.278,1.431-29.148,1.853l-52.341,128.147l13.024,31.832c1.243,3.038,4.201,5.024,7.484,5.024
	c3.283,0,6.241-1.985,7.485-5.024L325.153,317.421z"/>
<path style="fill:#F7434C;" d="M172.403,307.866c-1.148-2.556-3.538-4.334-6.315-4.702c-55.493-7.345-94.812-20.57-118.024-30.371
	c-2.74-1.158-5.891-0.717-8.209,1.145c-2.318,1.862-3.428,4.845-2.888,7.768l30.189,163.899c0.595,3.229,3.083,5.778,6.297,6.45
	c0.552,0.115,1.107,0.173,1.657,0.173c2.648,0,5.174-1.305,6.697-3.557l89.92-132.96
	C173.295,313.389,173.551,310.421,172.403,307.866z"/>
<path style="fill:#DB2E37;" d="M81.805,448.671l89.92-132.96c1.57-2.321,1.825-5.288,0.677-7.844
	c-1.148-2.556-3.538-4.334-6.315-4.702c-9.102-1.204-17.759-2.569-25.991-4.05l-78.423,116.74l5.479,29.749
	c0.595,3.229,3.083,5.778,6.297,6.45c0.552,0.115,1.107,0.173,1.657,0.173C77.757,452.228,80.283,450.924,81.805,448.671z"/>
	<path style="fill:#904F15;" d="M256,110.899c-89.599,0-153.225-15.434-190.821-28.382C23.936,68.314,4.145,54.063,3.322,53.463
		c-3.609-2.631-4.4-7.69-1.768-11.298c2.632-3.609,7.69-4.401,11.298-1.768c0.175,0.126,19.213,13.72,58.502,27.141
		C107.662,79.941,169.168,94.726,256,94.726c166.723,0,242.404-53.787,243.15-54.331c3.607-2.632,8.666-1.84,11.298,1.768
		c2.631,3.609,1.839,8.668-1.769,11.298c-0.823,0.599-20.613,14.851-61.855,29.054C409.225,95.465,345.6,110.899,256,110.899z"/>
	<path style="fill:#904F15;" d="M256,325.008c-89.599,0-153.225-15.434-190.821-28.382C23.936,282.422,4.145,268.17,3.322,267.571
		c-3.609-2.631-4.4-7.69-1.768-11.298c2.632-3.609,7.69-4.401,11.298-1.768c0.175,0.126,19.213,13.72,58.502,27.141
		c36.308,12.403,97.814,27.189,184.645,27.189c166.723,0,242.404-53.787,243.15-54.331c3.607-2.632,8.666-1.84,11.298,1.768
		c2.631,3.609,1.839,8.668-1.769,11.298c-0.823,0.599-20.613,14.851-61.855,29.054C409.225,309.573,345.6,325.008,256,325.008z"/>
</svg>
