<svg width="59.99999999999999" height="40" xmlns="http://www.w3.org/2000/svg">

 <g>
  <title>background</title>
  <rect fill="none" id="canvas_background" height="42" width="62" y="-1" x="-1"/>
 </g>
 <g>
  <title>Layer 1</title>
  <g id="svg_1">
   <path id="svg_2" d="m30.16,6.97823c-7.065001,0 -12.813,5.747976 -12.813,12.812963s5.747999,12.813086 12.813,12.813086s12.813,-5.748047 12.813,-12.813086s-5.748001,-12.812963 -12.813,-12.812963z"/>
   <path id="svg_3" d="m51.675999,11.93921c-5.758999,-5.759975 -13.416,-8.930975 -21.560999,-8.930975s-15.802,3.171 -21.561,8.930975l-7.941,7.940982l7.711,7.711048c5.759,5.759037 13.415999,8.931038 21.561,8.931038s15.802,-3.171001 21.560999,-8.931038l7.941002,-7.941048l-7.711002,-7.710982zm-1.645,14.237016c-5.380997,5.381048 -12.535999,8.345053 -20.145998,8.345053s-14.765,-2.963005 -20.147,-8.345053l-6.297,-6.297033l6.527,-6.526989c5.382,-5.380977 12.536999,-8.343968 20.146999,-8.343968s14.765001,2.962992 20.146002,8.344968l6.296997,6.296989l-6.527,6.526033z"/>
  </g>
  <g id="svg_6"/>
  <g id="svg_7"/>
  <g id="svg_8"/>
  <g id="svg_9"/>
  <g id="svg_10"/>
  <g id="svg_11"/>
  <g id="svg_12"/>
  <g id="svg_13"/>
  <g id="svg_14"/>
  <g id="svg_15"/>
  <g id="svg_16"/>
  <g id="svg_17"/>
  <g id="svg_18"/>
  <g id="svg_19"/>
  <g id="svg_20"/>
 </g>
</svg>